<svg width="12" height="14" viewBox="0 0 12 14" fill="none" xmlns="http://www.w3.org/2000/svg">
<path d="M5.83333 4.16667C4.91667 4.16667 4.16667 4.91667 4.16667 5.83333C4.16667 6.75 4.91667 7.5 5.83333 7.5C6.75 7.5 7.5 6.75 7.5 5.83333C7.5 4.91667 6.75 4.16667 5.83333 4.16667ZM5.83333 0C8.55833 0 11.6667 2.05 11.6667 5.95833C11.6667 8.44166 9.89167 11.0583 6.34167 13.7833C6.04167 14.0167 5.625 14.0167 5.325 13.7833C1.775 11.05 0 8.44166 0 5.95833C0 2.05 3.10833 0 5.83333 0Z" fill="#9D99E4"/>
</svg>
